<svg width="20" height="18" viewBox="0 0 20 18" fill="none" xmlns="http://www.w3.org/2000/svg">
<path fill-rule="evenodd" clip-rule="evenodd" d="M18.7487 1.28652C18.8846 1.1415 18.9586 0.949692 18.9551 0.751505C18.9516 0.553317 18.8708 0.364225 18.7299 0.224064C18.589 0.0839022 18.3988 0.00361596 18.1996 0.000119184C18.0003 -0.0033776 17.8074 0.070188 17.6616 0.205318L1.25174 16.5253C1.17617 16.5954 1.11555 16.6798 1.07351 16.7737C1.03147 16.8675 1.00886 16.9688 1.00704 17.0715C1.00522 17.1742 1.02422 17.2763 1.0629 17.3715C1.10159 17.4668 1.15917 17.5533 1.23222 17.6259C1.30526 17.6986 1.39227 17.7558 1.48805 17.7943C1.58383 17.8328 1.68642 17.8517 1.7897 17.8499C1.89298 17.8481 1.99484 17.8256 2.0892 17.7838C2.18355 17.742 2.26847 17.6817 2.3389 17.6065L5.25882 14.7026C6.66084 15.3595 8.27413 15.7909 10.0002 15.7909C12.753 15.7909 15.2206 14.6924 16.9949 13.3378C17.8842 12.6595 18.6185 11.9027 19.1375 11.1591C19.6421 10.4359 20 9.64338 20 8.90592C20 8.16846 19.641 7.37592 19.1375 6.65274C18.6185 5.90916 17.8842 5.15334 16.996 4.47402C16.7262 4.269 16.4421 4.06908 16.1427 3.87936L18.7487 1.28652ZM15.0258 4.99014L13.2094 6.79656C13.6991 7.53211 13.9181 8.4134 13.8293 9.29114C13.7405 10.1689 13.3494 10.9891 12.7221 11.6129C12.0949 12.2367 11.2702 12.6257 10.3876 12.714C9.50501 12.8023 8.61888 12.5845 7.87927 12.0975L6.42597 13.5418C7.55943 14.0091 8.77327 14.2533 10.0002 14.2609C12.3458 14.2609 14.4924 13.3195 16.0586 12.124C16.8401 11.5273 17.4575 10.8817 17.8739 10.287C18.3036 9.67092 18.4616 9.18846 18.4616 8.90592C18.4616 8.62338 18.3036 8.14092 17.8739 7.52484C17.4575 6.93018 16.8401 6.28452 16.0586 5.68782C15.7375 5.44302 15.3929 5.20842 15.0258 4.99014ZM9.0054 10.9775C9.43601 11.1821 9.9198 11.2488 10.3901 11.1686C10.8605 11.0883 11.2942 10.865 11.6317 10.5294C11.9691 10.1938 12.1936 9.76245 12.2743 9.29469C12.355 8.82693 12.2879 8.3458 12.0822 7.91754L9.0054 10.9775Z" fill="white"/>
<path d="M9.99975 2.02116C11.0582 2.02116 12.0756 2.18436 13.0263 2.46078C13.068 2.47313 13.1056 2.49609 13.1356 2.52738C13.1655 2.55866 13.1867 2.5972 13.1971 2.63915C13.2075 2.6811 13.2066 2.72502 13.1947 2.76656C13.1827 2.80809 13.16 2.84579 13.1289 2.87592L12.2838 3.71742C12.2524 3.74838 12.2137 3.77089 12.1712 3.78285C12.1286 3.7948 12.0837 3.7958 12.0407 3.78576C11.3715 3.63118 10.6868 3.55248 9.99975 3.55116C7.65417 3.55116 5.50756 4.49262 3.94144 5.68806C3.15992 6.28476 2.5425 6.93042 2.1261 7.52508C1.69637 8.14116 1.53842 8.62362 1.53842 8.90616C1.53842 9.1887 1.69637 9.67116 2.1261 10.2872C2.48917 10.8074 3.00608 11.3654 3.65222 11.8958C3.77119 11.9927 3.78247 12.1712 3.67273 12.2803L2.94659 13.0035C2.90212 13.0484 2.84231 13.0749 2.77903 13.078C2.71576 13.081 2.65366 13.0602 2.60506 13.0198C1.94474 12.4783 1.35888 11.8528 0.862543 11.1593C0.358966 10.4362 0 9.64362 0 8.90616C0 8.1687 0.358966 7.37616 0.862543 6.65298C1.3815 5.9094 2.11585 5.15358 3.00403 4.47426C4.77937 3.1197 7.247 2.02116 9.99975 2.02116Z" fill="white"/>
<path d="M10.3598 5.09673C10.2419 5.08551 10.1208 5.08041 9.99981 5.08041C9.46435 5.08034 8.93477 5.19148 8.44498 5.4067C7.9552 5.62192 7.51599 5.93648 7.15549 6.33024C6.79499 6.724 6.52114 7.1883 6.35147 7.69339C6.1818 8.19848 6.12004 8.73324 6.17016 9.26343C6.18965 9.46437 6.43067 9.53781 6.57425 9.39501L7.8173 8.15775C7.93183 7.82829 8.12014 7.52902 8.36799 7.28252C8.61584 7.03603 8.91676 6.84876 9.24804 6.73485L10.4921 5.49861C10.6347 5.35581 10.5618 5.11611 10.3598 5.09673Z" fill="white"/>
</svg>
