<svg width="20" height="14" viewBox="0 0 20 14" fill="none" xmlns="http://www.w3.org/2000/svg">
<path fill-rule="evenodd" clip-rule="evenodd" d="M7.27994 4.20377C6.55865 4.92506 6.15343 5.90335 6.15343 6.92341C6.15343 7.94347 6.55865 8.92176 7.27994 9.64305C8.00124 10.3643 8.97952 10.7696 9.99958 10.7696C11.0196 10.7696 11.9979 10.3643 12.7192 9.64305C13.4405 8.92176 13.8457 7.94347 13.8457 6.92341C13.8457 5.90335 13.4405 4.92506 12.7192 4.20377C11.9979 3.48248 11.0196 3.07726 9.99958 3.07726C8.97952 3.07726 8.00124 3.48248 7.27994 4.20377ZM8.3678 5.29163C8.80057 4.85885 9.38755 4.61572 9.99958 4.61572C10.6116 4.61572 11.1986 4.85885 11.6314 5.29163C12.0641 5.7244 12.3073 6.31137 12.3073 6.92341C12.3073 7.53545 12.0641 8.12242 11.6314 8.55519C11.1986 8.98797 10.6116 9.2311 9.99958 9.2311C9.38755 9.2311 8.80057 8.98797 8.3678 8.55519C7.93502 8.12242 7.69189 7.53545 7.69189 6.92341C7.69189 6.31137 7.93502 5.7244 8.3678 5.29163Z" fill="white"/>
<path fill-rule="evenodd" clip-rule="evenodd" d="M10 0C7.24718 0 4.77949 1.10462 3.0041 2.46667C2.1159 3.14974 1.38154 3.90974 0.862564 4.65744C0.358974 5.38462 0 6.18154 0 6.92308C0 7.66461 0.358974 8.46154 0.862564 9.18872C1.38154 9.93641 2.1159 10.6974 3.00513 11.3795C4.77949 12.7415 7.24718 13.8462 10 13.8462C12.7528 13.8462 15.2215 12.7415 16.9959 11.3795C17.8841 10.6964 18.6185 9.93641 19.1374 9.18872C19.641 8.46154 20 7.66461 20 6.92308C20 6.18154 19.6421 5.38462 19.1374 4.65744C18.6185 3.90974 17.8841 3.14872 16.9949 2.46667C15.2205 1.10462 12.7528 0 10 0ZM1.53846 6.92308C1.53846 6.63897 1.69641 6.15385 2.12615 5.53436C2.54256 4.93641 3.16 4.28718 3.94154 3.68718C5.50769 2.48513 7.65436 1.53846 10 1.53846C12.3456 1.53846 14.4923 2.48513 16.0585 3.68718C16.84 4.28718 17.4574 4.93641 17.8738 5.53436C18.3036 6.15385 18.4615 6.63897 18.4615 6.92308C18.4615 7.20718 18.3036 7.69231 17.8738 8.31179C17.4574 8.90974 16.84 9.55897 16.0585 10.159C14.4923 11.361 12.3456 12.3077 10 12.3077C7.65436 12.3077 5.50769 11.361 3.94154 10.159C3.16 9.55897 2.54256 8.90974 2.12615 8.31179C1.69641 7.69231 1.53846 7.20718 1.53846 6.92308Z" fill="white"/>
</svg>
