<svg width="16" height="16" viewBox="0 0 16 16" fill="none" xmlns="http://www.w3.org/2000/svg">
<path d="M10.9302 5.84212C12.1223 5.15391 13.6465 5.56233 14.3347 6.75434C15.0229 7.94636 14.6145 9.47058 13.4225 10.1588L6.02782 14.4281C4.83581 15.1163 3.31158 14.7079 2.62337 13.5159C1.93516 12.3239 2.34358 10.7996 3.53559 10.1114L10.9302 5.84212Z" fill="#DAD7CD"/>
<path d="M2.28906 3.73051C2.28906 2.35409 3.40487 1.23828 4.78129 1.23828C6.15771 1.23828 7.27352 2.35409 7.27352 3.73051V12.2691C7.27352 13.6455 6.15771 14.7613 4.78129 14.7613C3.40487 14.7613 2.28906 13.6455 2.28906 12.2691V3.73051Z" fill="#588157"/>
<path d="M3.53364 5.88926C2.34163 5.20105 1.93321 3.67683 2.62142 2.48481C3.30963 1.2928 4.83386 0.884383 6.02587 1.57259L13.4205 5.84189C14.6125 6.5301 15.0209 8.05433 14.3327 9.24634C13.6445 10.4384 12.1203 10.8468 10.9283 10.1586L3.53364 5.88926Z" fill="#A3B18A"/>
<path d="M13.3395 5.79439L13.4209 5.84138C14.6129 6.52959 15.0213 8.05382 14.3331 9.24583C13.6449 10.4378 12.1206 10.8463 10.9286 10.1581L7.19141 8.00037L10.9313 5.84115C11.7003 5.39716 12.6076 5.40959 13.3395 5.79439Z" fill="#BEC4AB"/>
<path d="M2.36806 12.8861C2.31775 12.6887 2.29102 12.4819 2.29102 12.2688V12.2276C2.30579 11.3817 2.7511 10.5643 3.53717 10.1105L7.27548 7.95215V12.2688C7.27548 13.176 6.79076 13.97 6.06618 14.4059L6.0294 14.4271C5.837 14.5382 5.63595 14.6207 5.43116 14.676C5.22456 14.7315 5.00736 14.761 4.78325 14.761C4.70102 14.761 4.61973 14.7571 4.53955 14.7493C4.18327 14.714 3.83697 14.6023 3.52628 14.4213C3.22929 14.2475 2.97149 14.014 2.76935 13.7372C2.7179 13.6665 2.66966 13.5924 2.62495 13.5149C2.50835 13.313 2.42322 13.1015 2.36806 12.8861Z" fill="#98AB90"/>
<path d="M2.29102 3.85146C2.33142 4.66879 2.77311 5.44948 3.53451 5.88907L7.27548 8.04892V3.73051C7.27548 2.84231 6.81084 2.06263 6.11137 1.62127L6.02674 1.5724C5.69986 1.38368 5.348 1.27742 4.99525 1.24717C4.92536 1.24128 4.85465 1.23828 4.78325 1.23828C4.68615 1.23828 4.59036 1.24383 4.49616 1.25464C4.317 1.27536 4.14062 1.3154 3.97031 1.37388C2.99304 1.71093 2.29102 2.63874 2.29102 3.73051V3.85146Z" fill="#7D9970"/>
</svg>
