<svg width="512" height="512" viewBox="0 0 512 512" fill="none" xmlns="http://www.w3.org/2000/svg">
<path d="M349.719 186.93C387.863 164.908 436.638 177.977 458.661 216.121C480.684 254.266 467.615 303.041 429.47 325.064L192.842 461.681C154.697 483.704 105.922 470.635 83.8991 432.49C61.8764 394.346 74.9457 345.571 113.09 323.548L349.719 186.93Z" fill="#DAD7CD"/>
<path d="M73.2148 119.382C73.2148 75.3368 108.921 39.6309 152.966 39.6309C197.012 39.6309 232.718 75.3368 232.718 119.382V392.617C232.718 436.663 197.012 472.369 152.966 472.369C108.921 472.369 73.2148 436.663 73.2148 392.617V119.382Z" fill="#588157"/>
<path d="M113.032 188.451C74.8871 166.428 61.8178 117.653 83.8405 79.5081C105.863 41.3637 154.638 28.2944 192.783 50.3171L429.412 186.935C467.556 208.957 480.625 257.733 458.603 295.877C436.58 334.022 387.805 347.091 349.66 325.068L113.032 188.451Z" fill="#A3B18A"/>
<path d="M426.822 185.41L429.426 186.913C467.571 208.936 480.64 257.711 458.617 295.856C436.595 334 387.819 347.07 349.675 325.047L230.084 256.001L349.76 186.906C374.369 172.698 403.402 173.096 426.822 185.41Z" fill="#BEC4AB"/>
<path d="M75.7036 412.339C74.0939 406.022 73.2383 399.403 73.2383 392.585V391.267C73.7112 364.197 87.961 338.041 113.115 323.518L232.741 254.452V392.585C232.741 421.615 217.23 447.023 194.044 460.972L192.866 461.652C186.71 465.206 180.276 467.847 173.723 469.615C167.112 471.39 160.161 472.336 152.99 472.336C150.359 472.336 147.757 472.209 145.191 471.96C133.79 470.83 122.709 467.259 112.767 461.465C103.263 455.903 95.0135 448.431 88.5451 439.575C86.8987 437.311 85.3549 434.939 83.9241 432.461C80.1928 425.998 77.4689 419.23 75.7036 412.339Z" fill="#98AB90"/>
<path d="M73.2969 123.252C74.5897 149.407 88.7238 174.389 113.089 188.456L232.8 257.571V119.382C232.8 90.9597 217.931 66.0099 195.548 51.8864L192.84 50.3228C182.38 44.2836 171.12 40.8833 159.832 39.9153C157.596 39.727 155.333 39.6309 153.048 39.6309C149.941 39.6309 146.876 39.8085 143.861 40.1542C138.128 40.8175 132.484 42.0987 127.034 43.9699C95.7618 54.7556 73.2969 84.4454 73.2969 119.382V123.252Z" fill="#7D9970"/>
</svg>
