<svg width="192" height="192" viewBox="0 0 192 192" fill="none" xmlns="http://www.w3.org/2000/svg">
<rect width="192" height="192" rx="96" fill="white"/>
<path d="M123.963 77.0361C134.439 70.9882 147.835 74.5773 153.883 85.0526C159.932 95.5278 156.342 108.922 145.866 114.97L80.8767 152.488C70.4005 158.536 57.0045 154.947 50.956 144.472C44.9075 133.997 48.497 120.602 58.9733 114.554L123.963 77.0361Z" fill="#DAD7CD"/>
<path d="M48.0273 58.4729C48.0273 46.3771 57.8338 36.5715 69.9308 36.5715C82.0278 36.5715 91.8343 46.3771 91.8343 58.4729V133.509C91.8343 145.605 82.0278 155.41 69.9308 155.41C57.8338 155.41 48.0273 145.605 48.0273 133.509V58.4729Z" fill="#588157"/>
<path d="M58.9554 77.4391C48.4791 71.3912 44.8897 57.9966 50.9382 47.5213C56.9866 37.046 70.3826 33.457 80.8589 39.5048L145.848 77.0228C156.325 83.0707 159.914 96.4654 153.865 106.941C147.817 117.416 134.421 121.005 123.945 114.957L58.9554 77.4391Z" fill="#A3B18A"/>
<path d="M145.141 76.5984L145.856 77.0114C156.332 83.0593 159.922 96.4539 153.873 106.929C147.825 117.404 134.429 120.994 123.952 114.946L91.1071 95.9842L123.976 77.0093C130.735 73.1076 138.708 73.2168 145.141 76.5984Z" fill="#BEC4AB"/>
<path d="M48.7044 138.93C48.2623 137.195 48.0273 135.378 48.0273 133.505V133.143C48.1572 125.709 52.0709 118.526 58.9794 114.538L91.8343 95.5711V133.505C91.8343 141.478 87.5743 148.455 81.2061 152.286L80.8829 152.472C79.192 153.449 77.425 154.174 75.6251 154.659C73.8094 155.147 71.9004 155.407 69.9308 155.407C69.2082 155.407 68.4937 155.372 67.789 155.303C64.6578 154.993 61.6142 154.012 58.8837 152.421C56.2735 150.894 54.0078 148.842 52.2313 146.41C51.7791 145.788 51.3551 145.137 50.9621 144.456C49.9374 142.681 49.1892 140.823 48.7044 138.93Z" fill="#98AB90"/>
<path d="M48.0402 59.5356C48.3953 66.7183 52.2772 73.5788 58.9689 77.4419L91.8472 96.4224V58.4728C91.8472 50.6674 87.7636 43.8157 81.6162 39.9371L80.8724 39.5076C77.9995 37.8492 74.9071 36.9154 71.8069 36.6496C71.1927 36.5978 70.5713 36.5714 69.9437 36.5714C69.0904 36.5714 68.2485 36.6202 67.4206 36.7152C65.846 36.8973 64.2959 37.2492 62.799 37.763C54.2101 40.725 48.0402 48.8784 48.0402 58.4728V59.5356Z" fill="#7D9970"/>
</svg>
