<svg width="221" height="56" viewBox="0 0 221 56" fill="none" xmlns="http://www.w3.org/2000/svg">
<path d="M38.2475 20.4435C42.4193 18.0348 47.7539 19.4642 50.1626 23.6362C52.5713 27.8084 51.1419 33.1431 46.9699 35.5519L21.0896 50.4944C16.9177 52.9031 11.5831 51.4737 9.17444 47.3016C6.76579 43.1296 8.1952 37.7948 12.3671 35.3861L38.2475 20.4435Z" fill="#D7D7D7"/>
<path d="M8.00781 13.0568C8.00781 8.23932 11.913 4.33398 16.7303 4.33398C21.5477 4.33398 25.4529 8.23932 25.4529 13.0568V42.9418C25.4529 47.7594 21.5477 51.6647 16.7303 51.6647C11.913 51.6647 8.00781 47.7594 8.00781 42.9418V13.0568Z" fill="#707070"/>
<path d="M12.3623 20.6105C8.19031 18.2017 6.76091 12.867 9.16956 8.69489C11.5782 4.52284 16.9128 3.09339 21.0847 5.50212L46.9651 20.4447C51.1369 22.8534 52.5663 28.1882 50.1577 32.3602C47.7491 36.5323 42.4145 37.9618 38.2425 35.553L12.3623 20.6105Z" fill="#A9A9A9"/>
<path d="M46.6815 20.278L46.9663 20.4423C51.1383 22.8511 52.5677 28.1859 50.159 32.358C47.7504 36.53 42.4157 37.9595 38.2439 35.5508L25.1641 27.9988L38.2532 20.4416C40.9447 18.8876 44.12 18.9311 46.6815 20.278Z" fill="#BFBFBF"/>
<path d="M8.28038 45.097C8.10432 44.4061 8.01074 43.6821 8.01074 42.9364V42.7923C8.06246 39.8315 9.62098 36.9707 12.3721 35.3822L25.4557 27.8281V42.9364C25.4557 46.1116 23.7593 48.8906 21.2234 50.4162L21.0946 50.4906C20.4213 50.8793 19.7176 51.1682 19.0009 51.3616C18.2778 51.5557 17.5176 51.6592 16.7333 51.6592C16.4455 51.6592 16.1609 51.6453 15.8803 51.6181C14.6334 51.4945 13.4214 51.1039 12.334 50.4702C11.2946 49.8618 10.3923 49.0446 9.68486 48.076C9.5048 47.8283 9.33595 47.5689 9.17946 47.2979C8.77136 46.591 8.47345 45.8507 8.28038 45.097Z" fill="#A2A2A2"/>
<path d="M8.01611 13.48C8.15751 16.3407 9.70337 19.0731 12.3682 20.6117L25.4611 28.1712V13.0568C25.4611 9.94807 23.8349 7.21919 21.3869 5.67443L21.0907 5.50341C19.9467 4.84287 18.7151 4.47097 17.4806 4.36509C17.236 4.34449 16.9885 4.33398 16.7386 4.33398C16.3988 4.33398 16.0635 4.35341 15.7338 4.39122C15.1068 4.46377 14.4895 4.6039 13.8934 4.80856C10.4731 5.98825 8.01611 9.23557 8.01611 13.0568V13.48Z" fill="#8C8C8C"/>
<path d="M85.0615 40.3467V42.5H69.5781V40.3467H85.0615ZM70.3164 12.6406V42.5H67.7939V12.6406H70.3164ZM90.5957 20.3105V42.5H88.1553V20.3105H90.5957ZM87.7246 13.8916C87.7246 13.4268 87.8682 13.0371 88.1553 12.7227C88.4561 12.3945 88.8662 12.2305 89.3857 12.2305C89.9053 12.2305 90.3154 12.3945 90.6162 12.7227C90.9307 13.0371 91.0879 13.4268 91.0879 13.8916C91.0879 14.3428 90.9307 14.7324 90.6162 15.0605C90.3154 15.375 89.9053 15.5322 89.3857 15.5322C88.8662 15.5322 88.4561 15.375 88.1553 15.0605C87.8682 14.7324 87.7246 14.3428 87.7246 13.8916ZM98.2422 25.0479V42.5H95.8018V20.3105H98.1396L98.2422 25.0479ZM97.6885 30.0312L96.6016 29.416C96.6836 28.1035 96.9502 26.873 97.4014 25.7246C97.8525 24.5762 98.4609 23.5645 99.2266 22.6895C100.006 21.8145 100.915 21.1309 101.954 20.6387C103.007 20.1465 104.169 19.9004 105.44 19.9004C106.548 19.9004 107.539 20.0508 108.414 20.3516C109.289 20.6523 110.034 21.1309 110.649 21.7871C111.265 22.4434 111.729 23.2842 112.044 24.3096C112.372 25.335 112.536 26.5859 112.536 28.0625V42.5H110.075V28.042C110.075 26.5107 109.863 25.3145 109.439 24.4531C109.016 23.5781 108.414 22.9561 107.635 22.5869C106.855 22.2178 105.933 22.0332 104.866 22.0332C103.69 22.0332 102.658 22.293 101.77 22.8125C100.895 23.3184 100.156 23.9814 99.5547 24.8018C98.9668 25.6084 98.5156 26.4766 98.2012 27.4062C97.8867 28.3223 97.7158 29.1973 97.6885 30.0312ZM119.834 11V42.5H117.394V11H119.834ZM133.759 20.3105L123.382 30.6055L118.973 34.8711L118.604 32.4717L122.151 28.6367L130.662 20.3105H133.759ZM131.626 42.5L122.356 30.9746L123.71 28.8623L134.579 42.5H131.626ZM147.065 12.6406V42.5H144.563V12.6406H147.065ZM157.299 12.6406V14.8145H134.351V12.6406H157.299ZM172.328 37.373V20.3105H174.789V42.5H172.431L172.328 37.373ZM172.779 33.2715L174.051 33.2305C174.051 34.625 173.887 35.9102 173.559 37.0859C173.23 38.2617 172.718 39.2871 172.021 40.1621C171.323 41.0371 170.421 41.7139 169.313 42.1924C168.206 42.6709 166.873 42.9102 165.314 42.9102C164.234 42.9102 163.243 42.7598 162.341 42.459C161.452 42.1445 160.687 41.6523 160.044 40.9824C159.401 40.3125 158.902 39.4443 158.547 38.3779C158.205 37.3115 158.034 36.0195 158.034 34.502V20.3105H160.475V34.543C160.475 35.7324 160.604 36.7236 160.864 37.5166C161.138 38.3096 161.507 38.9453 161.972 39.4238C162.45 39.9023 162.997 40.2441 163.612 40.4492C164.228 40.6543 164.891 40.7568 165.602 40.7568C167.406 40.7568 168.828 40.4082 169.867 39.7109C170.92 39.0137 171.665 38.0977 172.103 36.9629C172.554 35.8145 172.779 34.584 172.779 33.2715ZM179.667 11H182.128V38.1934L181.964 42.5H179.667V11ZM197.57 31.2002V31.6309C197.57 33.2852 197.379 34.8027 196.996 36.1836C196.613 37.5645 196.06 38.7607 195.335 39.7725C194.61 40.7705 193.722 41.543 192.669 42.0898C191.63 42.6367 190.434 42.9102 189.08 42.9102C187.754 42.9102 186.578 42.7051 185.553 42.2949C184.527 41.8711 183.652 41.2764 182.928 40.5107C182.203 39.7314 181.622 38.8223 181.185 37.7832C180.747 36.7305 180.439 35.5752 180.262 34.3174V28.8418C180.467 27.502 180.795 26.2852 181.246 25.1914C181.697 24.0977 182.278 23.1543 182.989 22.3613C183.714 21.5684 184.575 20.96 185.573 20.5361C186.585 20.1123 187.74 19.9004 189.039 19.9004C190.393 19.9004 191.596 20.167 192.648 20.7002C193.715 21.2197 194.61 21.9785 195.335 22.9766C196.06 23.9609 196.613 25.1504 196.996 26.5449C197.379 27.9258 197.57 29.4775 197.57 31.2002ZM195.089 31.6309V31.2002C195.089 29.9014 194.966 28.6982 194.72 27.5908C194.474 26.4834 194.084 25.5195 193.551 24.6992C193.031 23.8652 192.361 23.2158 191.541 22.751C190.721 22.2861 189.736 22.0537 188.588 22.0537C187.412 22.0537 186.407 22.252 185.573 22.6484C184.753 23.0312 184.069 23.5439 183.522 24.1865C182.989 24.8154 182.565 25.5059 182.251 26.2578C181.937 27.0098 181.704 27.748 181.554 28.4727V34.8506C181.786 35.876 182.189 36.8398 182.764 37.7422C183.338 38.6445 184.11 39.376 185.081 39.9365C186.052 40.4834 187.234 40.7568 188.629 40.7568C189.75 40.7568 190.714 40.5244 191.521 40.0596C192.341 39.5947 193.011 38.9521 193.53 38.1318C194.063 37.3115 194.453 36.3477 194.699 35.2402C194.959 34.1328 195.089 32.9297 195.089 31.6309ZM210.077 42.9102C208.628 42.9102 207.295 42.6436 206.078 42.1104C204.875 41.5771 203.822 40.8252 202.92 39.8545C202.031 38.8838 201.341 37.7354 200.849 36.4092C200.37 35.0693 200.131 33.6064 200.131 32.0205V31.1387C200.131 29.4297 200.384 27.8848 200.89 26.5039C201.396 25.123 202.093 23.9404 202.981 22.9561C203.87 21.9717 204.882 21.2197 206.017 20.7002C207.165 20.167 208.368 19.9004 209.626 19.9004C211.034 19.9004 212.285 20.1533 213.379 20.6592C214.473 21.1514 215.389 21.8555 216.127 22.7715C216.879 23.6738 217.446 24.7471 217.829 25.9912C218.212 27.2217 218.403 28.582 218.403 30.0723V31.5693H201.607V29.4775H215.963V29.1904C215.936 27.9463 215.683 26.7842 215.204 25.7041C214.739 24.6104 214.042 23.7217 213.112 23.0381C212.183 22.3545 211.021 22.0127 209.626 22.0127C208.587 22.0127 207.63 22.2314 206.755 22.6689C205.894 23.1064 205.148 23.7354 204.52 24.5557C203.904 25.3623 203.426 26.3262 203.084 27.4473C202.756 28.5547 202.592 29.7852 202.592 31.1387V32.0205C202.592 33.251 202.77 34.3994 203.125 35.4658C203.494 36.5186 204.014 37.4482 204.684 38.2549C205.367 39.0615 206.174 39.6904 207.104 40.1416C208.033 40.5928 209.059 40.8184 210.18 40.8184C211.492 40.8184 212.654 40.5791 213.666 40.1006C214.678 39.6084 215.587 38.8359 216.394 37.7832L217.932 38.9727C217.453 39.6836 216.852 40.3398 216.127 40.9414C215.416 41.543 214.562 42.0215 213.563 42.377C212.565 42.7324 211.403 42.9102 210.077 42.9102Z" fill="white"/>
</svg>
