<svg width="18" height="18" viewBox="0 0 18 18" fill="none" xmlns="http://www.w3.org/2000/svg">
<path d="M9 16H4C2.9 16 2 15.1 2 14V4C2 2.9 2.9 2 4 2H9C9.55 2 10 1.55 10 1C10 0.45 9.55 0 9 0H4C1.79 0 0 1.79 0 4V14C0 16.21 1.79 18 4 18H9C9.55 18 10 17.55 10 17C10 16.45 9.55 16 9 16Z" fill="#E0E0E0"/>
<path d="M17.6978 8.29943L14.7007 5.29268C14.6082 5.19989 14.4984 5.12628 14.3776 5.07607C14.2567 5.02585 14.1272 5 13.9964 5C13.8656 5 13.7361 5.02585 13.6152 5.07607C13.4944 5.12628 13.3846 5.19989 13.2921 5.29268C13.1996 5.38547 13.1262 5.49563 13.0761 5.61686C13.0261 5.7381 13.0003 5.86804 13.0003 5.99926C13.0003 6.13049 13.0261 6.26043 13.0761 6.38167C13.1262 6.5029 13.1996 6.61306 13.2921 6.70585L14.5808 7.99875L8 8C7.45053 8 7 8.44876 7 9C7 9.55124 7.45053 10.0033 8 10.0033H14.5808L13.2921 11.2962C13.1526 11.4361 13.0578 11.6145 13.0197 11.8086C12.9815 12.0028 13.0017 12.2039 13.0777 12.3865C13.1538 12.5691 13.2821 12.7249 13.4466 12.8341C13.611 12.9433 13.8042 13.0011 14.0014 13C14.2611 13 14.5109 12.8998 14.7107 12.7093L17.7078 9.70258C17.8005 9.60986 17.8739 9.49972 17.9241 9.37848C17.9742 9.25723 18 9.12726 18 8.99599C18 8.86473 17.9742 8.73476 17.9241 8.61351C17.8739 8.49227 17.8005 8.38213 17.7078 8.28941L17.6978 8.29943Z" fill="#E0E0E0"/>
</svg>
